<svg width="25" height="25" viewBox="0 0 25 25" fill="none" xmlns="http://www.w3.org/2000/svg">
<path d="M12.4999 23.6979C12.0467 23.6979 11.667 23.5444 11.3609 23.2372C11.0538 22.9311 10.9002 22.5515 10.9002 22.0982V14.0997H2.90171C2.44846 14.0997 2.06826 13.9461 1.76112 13.639C1.45504 13.3329 1.302 12.9533 1.302 12.5C1.302 12.0468 1.45504 11.6666 1.76112 11.3594C2.06826 11.0533 2.44846 10.9003 2.90171 10.9003H10.9002V2.90179C10.9002 2.44854 11.0538 2.06834 11.3609 1.7612C11.667 1.45512 12.0467 1.30209 12.4999 1.30209C12.9532 1.30209 13.3334 1.45512 13.6405 1.7612C13.9466 2.06834 14.0996 2.44854 14.0996 2.90179V10.9003H22.0981C22.5514 10.9003 22.9311 11.0533 23.2371 11.3594C23.5443 11.6666 23.6978 12.0468 23.6978 12.5C23.6978 12.9533 23.5443 13.3329 23.2371 13.639C22.9311 13.9461 22.5514 14.0997 22.0981 14.0997H14.0996V22.0982C14.0996 22.5515 13.9466 22.9311 13.6405 23.2372C13.3334 23.5444 12.9532 23.6979 12.4999 23.6979Z" fill="white"/>
</svg>
