<svg width="150" height="150" viewBox="0 0 150 150" fill="none" xmlns="http://www.w3.org/2000/svg">
<path d="M65.227 13.2956C64.1447 6.4626 68.8279 -0.0651976 75.7458 0.0036336C87.2335 0.117935 98.6005 2.87117 108.944 8.1211C123.032 15.2712 134.502 26.6872 141.718 40.7409C148.935 54.7946 151.529 70.7682 149.131 86.3833C147.371 97.8487 142.985 108.691 136.384 118.094C132.409 123.756 124.375 123.758 119.452 118.897V118.897C114.53 114.036 114.65 106.152 118.137 100.177C121.283 94.7872 123.41 88.8227 124.368 82.5809C125.965 72.1818 124.238 61.544 119.432 52.1848C114.626 42.8255 106.987 35.2229 97.6056 30.4612C91.9744 27.6031 85.8878 25.8561 79.6741 25.272C72.7863 24.6246 66.3092 20.1286 65.227 13.2956V13.2956Z" fill="#00FF00"/>
</svg>
