<svg width="35" height="35" viewBox="0 0 35 35" fill="none" xmlns="http://www.w3.org/2000/svg">
<g clip-path="url(#clip0_77_1143)">
<path d="M27.9125 18.8708C27.9708 18.4333 28 17.9812 28 17.5C28 17.0333 27.9708 16.5667 27.8979 16.1292L30.8583 13.825C31.1208 13.6208 31.1938 13.2271 31.0333 12.9354L28.2333 8.09375C28.0583 7.77292 27.6938 7.67083 27.3729 7.77292L23.8875 9.17292C23.1583 8.61875 22.3854 8.15208 21.525 7.80208L21 4.09792C20.9417 3.74792 20.65 3.5 20.3 3.5H14.7C14.35 3.5 14.0729 3.74792 14.0146 4.09792L13.4896 7.80208C12.6292 8.15208 11.8417 8.63333 11.1271 9.17292L7.64168 7.77292C7.32085 7.65625 6.95627 7.77292 6.78127 8.09375L3.99585 12.9354C3.82085 13.2417 3.87918 13.6208 4.17085 13.825L7.13127 16.1292C7.05835 16.5667 7.00002 17.0479 7.00002 17.5C7.00002 17.9521 7.02918 18.4333 7.1021 18.8708L4.14168 21.175C3.87918 21.3792 3.80627 21.7729 3.96668 22.0646L6.76668 26.9062C6.94168 27.2271 7.30627 27.3292 7.6271 27.2271L11.1125 25.8271C11.8417 26.3812 12.6146 26.8479 13.475 27.1979L14 30.9021C14.0729 31.2521 14.35 31.5 14.7 31.5H20.3C20.65 31.5 20.9417 31.2521 20.9854 30.9021L21.5104 27.1979C22.3708 26.8479 23.1583 26.3812 23.8729 25.8271L27.3583 27.2271C27.6792 27.3437 28.0438 27.2271 28.2188 26.9062L31.0188 22.0646C31.1938 21.7437 31.1208 21.3792 30.8438 21.175L27.9125 18.8708ZM17.5 22.75C14.6125 22.75 12.25 20.3875 12.25 17.5C12.25 14.6125 14.6125 12.25 17.5 12.25C20.3875 12.25 22.75 14.6125 22.75 17.5C22.75 20.3875 20.3875 22.75 17.5 22.75Z" fill="#0076FF"/>
</g>
<defs>
<clipPath id="clip0_77_1143">
<rect width="35" height="35" fill="white"/>
</clipPath>
</defs>
</svg>
